<?xml version="1.0" encoding="UTF-8" standalone="no"?>
<svg width="50px" height="40px" viewBox="0 0 50 40" version="1.1" xmlns="http://www.w3.org/2000/svg" xmlns:xlink="http://www.w3.org/1999/xlink" xmlns:sketch="http://www.bohemiancoding.com/sketch/ns">
    <title>form5-logo-gray</title>
    <description>Created with Sketch (http://www.bohemiancoding.com/sketch)</description>
    <defs></defs>
    <g id="Page-1" stroke="none" stroke-width="1" fill="none" fill-rule="evenodd" sketch:type="MSPage">
        <g id="Form5-logo" sketch:type="MSLayerGroup" fill="#A9ACB6">
            <g id="Group" sketch:type="MSShapeGroup">
                <path d="M2.36051136,2.42657343 L2.36051136,5.73762238 L8.59715909,5.73762238 L8.59715909,7.70097902 L2.36051136,7.70097902 L2.36051136,13.2833566 L0.0732954545,13.2833566 L0.0732954545,0.463216783 L9.73096591,0.463216783 L9.73096591,2.42685315 L2.36051136,2.42685315 L2.36051136,2.42685315 L2.36051136,2.42657343 L2.36051136,2.42657343 Z M2.36051136,2.42657343" id="Shape"></path>
                <path d="M16.1525568,13.5144056 C12.3948864,13.5144056 10.0394886,11.001958 10.0394886,6.87328671 C10.0394886,2.74461538 12.3948864,0.232167832 16.1525568,0.232167832 C19.9096591,0.232167832 22.2653409,2.74461538 22.2653409,6.87328671 C22.2653409,11.0016783 19.9096591,13.5144056 16.1525568,13.5144056 L16.1525568,13.5144056 L16.1525568,13.5144056 L16.1525568,13.5144056 Z M16.1525568,2.32475524 C13.7210227,2.32475524 12.4105114,3.69538462 12.4105114,6.87300699 C12.4105114,10.0556643 13.7210227,11.4366434 16.1525568,11.4366434 C18.5650568,11.4366434 19.8855114,10.0553846 19.8855114,6.87300699 C19.8855114,3.69566434 18.5653409,2.32475524 16.1525568,2.32475524 L16.1525568,2.32475524 L16.1525568,2.32475524 L16.1525568,2.32475524 Z M16.1525568,2.32475524" id="Shape"></path>
                <path d="M31.8772727,13.2830769 L29.2576705,8.37454545 L25.9732955,8.37454545 L25.9732955,13.2830769 L23.6857955,13.2830769 L23.6857955,0.462937063 L29.53125,0.462937063 C32.4051136,0.462937063 34.0866477,2.0220979 34.0866477,4.33202797 C34.0866477,6.16083916 32.9133523,7.41230769 31.4863636,7.95104895 L34.4386364,13.2830769 L31.8772727,13.2830769 L31.8772727,13.2830769 L31.8772727,13.2830769 L31.8772727,13.2830769 Z M29.4724432,2.42657343 L25.9732955,2.42657343 L25.9732955,6.48811189 L29.5119318,6.48811189 C30.8414773,6.48811189 31.740625,5.69902098 31.740625,4.46685315 C31.740625,3.17706294 30.8019886,2.42657343 29.4724432,2.42657343 L29.4724432,2.42657343 L29.4724432,2.42657343 L29.4724432,2.42657343 Z M29.4724432,2.42657343" id="Shape"></path>
                <path d="M47.7261364,13.2830769 L47.7261364,2.83076923 L43.8548295,13.2830769 L41.9389205,13.2830769 L38.0875,2.84979021 L38.0875,13.2830769 L35.8588068,13.2830769 L35.8588068,0.462937063 L39.2215909,0.462937063 L42.9357955,10.4727273 L46.6505682,0.462937063 L49.9545455,0.462937063 L49.9545455,13.2830769 L47.7261364,13.2830769 L47.7261364,13.2830769 L47.7261364,13.2830769 L47.7261364,13.2830769 Z M47.7261364,13.2830769" id="Shape"></path>
                <rect d="M0.0732954545,15.5351049 L0.0732954545,17.7871329 L49.9548295,17.7871329 L49.9548295,15.5351049 L0.0732954545,15.5351049 Z M0.0732954545,15.5351049" id="Rectangle" x="0.0732954545" y="15.5351049" width="49.8815341" height="2.25202797"></rect>
                <rect d="M0.0732954545,37.5941259 L0.0732954545,39.8461538 L31.2079545,39.8461538 L31.2079545,37.5941259 L0.0732954545,37.5941259 Z M0.0732954545,37.5941259" id="Rectangle" x="0.0732954545" y="37.5941259" width="31.1346591" height="2.25202797"></rect>
                <path d="M34.7880682,39.8464336 L31.2079545,28.9966434 L40.58125,22.2909091 L49.9548295,28.9966434 L46.3744318,39.8464336 L34.7880682,39.8464336 Z M34.7880682,39.8464336" id="Shape"></path>
                <path d="M7.42357955,30.914965 C7.42357955,29.452028 6.42585227,28.5700699 4.784375,28.5281119 C3.94289773,28.5065734 3.00994318,28.6696503 2.41789773,29.685035 L0.492613636,28.826014 L1.13494318,22.2914685 L9.046875,22.2914685 L9.046875,24.332028 L3.06420455,24.332028 L2.77102273,27.4696503 C3.57244318,26.9113287 4.55028409,26.7381818 5.37102273,26.7381818 C7.85397727,26.7381818 9.76960227,28.3362238 9.76960227,30.8772028 C9.76960227,33.2061538 8.06903409,35.3429371 4.84289773,35.3429371 C1.92755682,35.3429371 0.233522727,33.9253147 0.0142045455,31.4061538 L2.13494318,31.2360839 C2.41164773,33.0402797 3.57244318,33.3605594 4.76477273,33.3605594 C6.32869318,33.3597203 7.42357955,32.4358042 7.42357955,30.914965 C7.42357955,30.914965 7.42357955,32.4358042 7.42357955,30.914965 L7.42357955,30.914965 L7.42357955,30.914965 Z M7.42357955,30.914965" id="Shape"></path>
            </g>
        </g>
    </g>
</svg>